/* XPM */
static char *result[] = {
/* columns rows colors chars-per-pixel */
"35 35 201 2 ",
"   c #030000",
".  c #240000",
"X  c #281600",
"o  c #331C00",
"O  c #3A1B00",
"+  c #3C2200",
"@  c #3D2A01",
"#  c #452E00",
"$  c #4B2D00",
"%  c #4C3605",
"&  c #4E3902",
"*  c #4A3605",
"=  c #523A00",
"-  c #583F00",
";  c #5B4201",
":  c #624601",
">  c #664A02",
",  c #654906",
"<  c #774700",
"1  c #685200",
"2  c #6F520A",
"3  c #725401",
"4  c #7A5B02",
"5  c #745A05",
"6  c #856906",
"7  c #8C6C02",
"8  c #846807",
"9  c #926D04",
"0  c #8D7000",
"q  c #967605",
"w  c #A27C00",
"e  c #807527",
"r  c #887D32",
"t  c #9F8012",
"y  c #A68206",
"u  c #B38A02",
"i  c #B48703",
"p  c #BD9303",
"a  c #BF9800",
"s  c #BB960E",
"d  c #A0871E",
"f  c #BD9B18",
"g  c #BDA314",
"h  c #C28500",
"j  c #C58A00",
"k  c #C98F00",
"l  c #CA9200",
"z  c #CB9A03",
"x  c #C59B0A",
"c  c #CC9C08",
"v  c #C59800",
"b  c #D69E00",
"n  c #C99E1B",
"m  c #CDA20A",
"M  c #D4A402",
"N  c #DAA402",
"B  c #DCAC03",
"V  c #D0A40F",
"C  c #DBAB0A",
"Z  c #D5AC0E",
"A  c #DFB500",
"S  c #DFB00A",
"D  c #CFA610",
"F  c #C9A91A",
"G  c #D6AA16",
"H  c #DCB317",
"J  c #DCB51B",
"K  c #E3AF00",
"L  c #E7B300",
"P  c #EBB600",
"I  c #EDBB00",
"U  c #E5B50D",
"Y  c #E8B70D",
"T  c #E7B80F",
"R  c #EABB0C",
"E  c #F1BC00",
"W  c #E0AE12",
"Q  c #E2B614",
"!  c #E7B913",
"~  c #EBBD12",
"^  c #E5BB1B",
"/  c #EABD1B",
"(  c #F0BF12",
")  c #D4A725",
"_  c #CCB125",
"`  c #DDB422",
"'  c #DABD2A",
"]  c #DDB437",
"[  c #E6B724",
"{  c #EFC001",
"}  c #EAC009",
"|  c #F2C301",
" . c #FBC500",
".. c #F7C60D",
"X. c #EDC113",
"o. c #ECC61C",
"O. c #EDC91F",
"+. c #E6CA1C",
"@. c #F3C314",
"#. c #F5CA17",
"$. c #F3C519",
"%. c #F9C61C",
"&. c #F5C91C",
"*. c #FACB1C",
"=. c #FED51E",
"-. c #FEE500",
";. c #FEE415",
":. c #EDC424",
">. c #EDCD21",
",. c #EFC52B",
"<. c #E5C226",
"1. c #F4CB23",
"2. c #FBCE22",
"3. c #F5CA29",
"4. c #F1C728",
"5. c #EED125",
"6. c #ECD029",
"7. c #FED324",
"8. c #FFDB24",
"9. c #F4D42F",
"0. c #FED52A",
"q. c #FFDB2C",
"w. c #E3C438",
"e. c #F9CE35",
"r. c #FDD631",
"t. c #FEDB34",
"y. c #F4D339",
"u. c #F5DA3C",
"i. c #FDDD3B",
"p. c #F4D537",
"a. c #FFE425",
"s. c #FFE32B",
"d. c #FFE82A",
"f. c #FFE234",
"g. c #FFE934",
"h. c #FFE23C",
"j. c #FFEA3C",
"k. c #FFF13E",
"l. c #B6AF4E",
"z. c #CFA443",
"x. c #DFBD53",
"c. c #E7BF43",
"v. c #D6C342",
"b. c #DBCE55",
"n. c #DBD35D",
"m. c #EEC448",
"M. c #F9CC49",
"N. c #EBD749",
"B. c #F6DA42",
"V. c #F9DC44",
"C. c #FADD4D",
"Z. c #F4D445",
"A. c #EBC95A",
"S. c #F2CF52",
"D. c #F3C651",
"F. c #E8D45A",
"G. c #F0DD52",
"H. c #F4DA55",
"J. c #FFE344",
"K. c #FFEB44",
"L. c #FEE64A",
"P. c #FFEC4D",
"I. c #FFF344",
"U. c #FDE453",
"Y. c #FEEB52",
"T. c #FCED5C",
"R. c #F5E75F",
"E. c #DAD664",
"W. c #F2CA62",
"Q. c #EFD769",
"!. c #E7C87B",
"~. c #F4DB7E",
"^. c #F0D079",
"/. c #E9E46A",
"(. c #E7E167",
"). c #F4E364",
"_. c #FDEB63",
"`. c #F3ED6C",
"'. c #F8EA69",
"]. c #FCF264",
"[. c #FBF36D",
"{. c #FFF96C",
"}. c #FDEC71",
"|. c #FEEB7B",
" X c #FAF672",
".X c #FEFD76",
"XX c #F4F172",
"oX c #F3D680",
"OX c #FAE584",
"+X c #F9E88A",
"@X c #FFF286",
"#X c #FEEE94",
"$X c #F8E39B",
"%X c #FFFD97",
"&X c #FDEEA2",
"*X c #FAE2A8",
"=X c #FEF1A9",
"-X c #FFF4B2",
";X c #FEF5C9",
":X c #FDF3D3",
">X c None",
/* pixels */
">X>X>X>X>X>X>X>X>X>X>X>X>X>X>X>X>X>X>X>X>X>X>X>X>X>X>X>X>X>X>X>X>X>X>X",
">X>X>X>X>X>X>X>X>X>X>X>X>X>X>X>X>X>X>X>X>X>X>X>X>X>X>X>X>X>X>X>X>X>X>X",
">X>X>X>X>X>X>X>X>X>X>X>X>Xj.K.T._.}.+X!.b >X>X>X>X>X>X>X>X>X>X>X>X>X>X",
">X>X>X>X>X>X>X>X>X>X>Xf.k.I.K.K.K.K.].%X-XM.Y [ >X>X>X>X>X>X>X>X>X>X>X",
">X>X>X>X>X>X>X>X>X>Xq.j.f.j.K.K.K.P.K.d.|.;XW. .[ >X>X>X>X>X>X>X>X>X>X",
">X>X>X>X>X>X>X>X>X0.f.f.f.' _ ' w.p.K.P.;. X:XD.E 2.>X>X>X>X>X>X>X>X>X",
">X>X>X>X>X>X>X>X7.t.f.<.d l.E./.(.b.v.u.T.-.@X:X ./ ..>X>X>X>X>X>X>X>X",
">X>X>X>X>X>X>X1.d.s.D r /..X.X.X.X.XXXb.p.P.-.-X*X .3.~ >X>X>X>X>X>X>X",
">X>X>X>X>X>X>X7.8.J 5 .X[./.n.n.n.XX X XF.u.K.J.;XM.| 7.^ >X>X>X>X>X>X",
">X>X>X>X>X>X&.a.1.8 B.T.T.U.< g +.). X XXXN.h.;.#X$X| ,.o.>X>X>X>X>X>X",
">X>X>X>X>X>X*.8.s F g.t.h.U.G 9.k.R.[.[. X`.u.h.U.$X3.,.*.>X>X>X>X>X>X",
">X>X>X>X>X>X=.&.y 1.8.q.t.U.c 6.g.U.].].[.[.G.h.q.@XW.} :.J >X>X>X>X>X",
">X>X>X>X>X1.a.H f 7.2.7.8.C.c 5.g.L.T.T._.].R.u.s.'.Q.A ` Z >X>X>X>X>X",
">X>X>X>X>X1.s.D H 7.7.7.8.C.z 9.g.L.P.Y.T.T.T.u.q.U.Q.M D M >X>X>X>X>X",
">X>X>X>X>X3.q.C *.7.7.7.0.V.z >.d.h.L.L.Y.Y.T.B.q.h.G.p a v u >X>X>X>X",
">X>X>X>X>X7.8.! *.8.7.0.q.B.v >.d.p.h.J.L.L.P.B.q.h.B.s u p y >X>X>X>X",
">X>X>X>X>X2.0.1.*.*.7.7.q.y.v O.d.t.i.h.J.J.L.u.0.t.>.w q w 9 >X>X>X>X",
">X>X>X>X>X%.r.i...#.*.*.7.9.v 5.s.u.J.i.i.J.J.i.t.h.[ 4 3 4 2 >X>X>X>X",
">X>X>X>X>X..e.U.| ~ @.@.*.3.u O.s.u.i.i.i.i.i.t.t.f.G $ & = % >X>X>X>X",
">X>X>X>X>XI e._.| ! T ~ @.1.i O.8.0.t.i.i.i.h.u.t.h.f O & = % >X>X>X>X",
">X>X>X>X>XR 2.|.,.K Y Y ~ / i O.q.*.7.0.r.t.i.r.t.h.t   @ @ @ >X>X>X>X",
">X>X>X>X>X/  .+XS.N C U U ! i $.8.X.&.*.2.0.r.0.t.r.5   X X >X>X>X>X>X",
">X>X>X>X>X>X .~.OXb G N K Q i o.8.~ X.@.$.*.2.7.t.<.# # # @ >X>X>X>X>X",
">X>X>X>X>X>XE c.-XK c c M H i o.8.~ ~ ~ @.$.*.7.7.F . ; = = >X>X>X>X>X",
">X>X>X>X>X>X[ E $XoXl n c B i R =.Q U T ~ @.*.*.7.8 o = = % >X>X>X>X>X",
">X>X>X>X>X>X>X .c.-X[ l k A.).V.j.Q K U Y #.#.*.H X ; - ; >X>X>X>X>X>X",
">X>X>X>X>X>X>X[ L ^.&XM h z.x.c.w.G C C X.#.$.*.q O : > , >X>X>X>X>X>X",
">X>X>X>X>X>X>X>X2.L oX#X` h h j l l M X.#.X.*.Z X : : : >X>X>X>X>X>X>X",
">X>X>X>X>X>X>X>XC %.L W.OXS.] ) ) [ O.$.~ @.( , - : > >X>X>X>X>X>X>X>X",
">X>X>X>X>X>X>X>X>XU %.L T S.H.Z.y.1.X.! @.@.8 + > , , >X>X>X>X>X>X>X>X",
">X>X>X>X>X>X>X>X>X>XB %.R L L L P P R #.! 6 O 3 > >X>X>X>X>X>X>X>X>X>X",
">X>X>X>X>X>X>X>X>X>X>Xc R #.@.( X.@.@.m 4 3 6 8 >X>X>X>X>X>X>X>X>X>X>X",
">X>X>X>X>X>X>X>X>X>X>X>X>Xp m x x u 9 1 9 >X>X>X>X>X>X>X>X>X>X>X>X>X>X",
">X>X>X>X>X>X>X>X>X>X>X>X>X>X>X>X>X>X>X>X>X>X>X>X>X>X>X>X>X>X>X>X>X>X>X",
">X>X>X>X>X>X>X>X>X>X>X>X>X>X>X>X>X>X>X>X>X>X>X>X>X>X>X>X>X>X>X>X>X>X>X"
};
