/* XPM */
static char *result[] = {
/* columns rows colors chars-per-pixel */
"35 35 244 2 ",
"   c black",
".  c #000200",
"X  c #000400",
"o  c #000600",
"O  c #000700",
"+  c #001200",
"@  c #001400",
"#  c #001600",
"$  c #001A00",
"%  c #001E00",
"&  c #042700",
"*  c #072700",
"=  c #003000",
"-  c #003300",
";  c #003800",
":  c #003C00",
">  c #003F00",
",  c #004000",
"<  c #094100",
"1  c #0A4200",
"2  c #1A4600",
"3  c #224901",
"4  c #274B01",
"5  c #294C01",
"6  c #255001",
"7  c #315001",
"8  c #345101",
"9  c #375301",
"0  c #006100",
"q  c #006200",
"w  c #006500",
"e  c #036800",
"r  c #0B6900",
"t  c #327201",
"y  c #425F02",
"u  c #446202",
"i  c #466302",
"p  c #4A6003",
"a  c #486302",
"s  c #4A6603",
"d  c #4F7F03",
"f  c #008300",
"g  c #008400",
"h  c #008500",
"j  c #008600",
"k  c #008800",
"l  c #008900",
"z  c #008A00",
"x  c #008B00",
"c  c #048B00",
"v  c #008C00",
"b  c #018C00",
"n  c #008D00",
"m  c #018D00",
"M  c #038D00",
"N  c #048C00",
"B  c #058D00",
"V  c #068C00",
"C  c #078C00",
"Z  c #088C00",
"A  c #0A8D00",
"S  c #0B8D00",
"D  c #0B8E00",
"F  c #0D8D00",
"G  c #0F8D00",
"H  c #138D00",
"J  c #138E00",
"K  c #148D00",
"L  c #148E00",
"P  c #009000",
"I  c #049100",
"U  c #009500",
"Y  c #049700",
"T  c #159200",
"R  c #159800",
"E  c #258F01",
"W  c #249001",
"Q  c #259001",
"!  c #229401",
"~  c #279501",
"^  c #2E9601",
"/  c #2A9B01",
"(  c #339701",
")  c #349801",
"_  c #359801",
"`  c #588404",
"'  c #5D8704",
"]  c #5E8804",
"[  c #409A02",
"{  c #489903",
"}  c #499A03",
"|  c #4B9B03",
" . c #529F03",
".. c #549D03",
"X. c #549E03",
"o. c #628A05",
"O. c #6B8B06",
"+. c #6C8B06",
"@. c #6B8C06",
"#. c #6C8C06",
"$. c #6E8E06",
"%. c #6F8F06",
"&. c #728F06",
"*. c #6E9206",
"=. c #719206",
"-. c #739507",
";. c #749407",
":. c #749706",
">. c #779807",
",. c #789907",
"<. c #7D9C08",
"1. c #58A104",
"2. c #5AA104",
"3. c #5EA304",
"4. c #58A404",
"5. c #5BA504",
"6. c #5EA404",
"7. c #5EA704",
"8. c #60A505",
"9. c #6BA305",
"0. c #60A805",
"q. c #68AE05",
"w. c #6FAC06",
"e. c #6EAF06",
"r. c #70A606",
"t. c #7AA607",
"y. c #7BA707",
"u. c #72AD07",
"i. c #73AE06",
"p. c #73AE07",
"a. c #75AE06",
"s. c #75AF07",
"d. c #76AF07",
"f. c #77B007",
"g. c #74B307",
"h. c #78B107",
"j. c #78B407",
"k. c #7CBB07",
"l. c #7DB308",
"z. c #7DB408",
"x. c #7EB408",
"c. c #7CB708",
"v. c #81A109",
"b. c #82A209",
"n. c #80B608",
"m. c #80B609",
"M. c #81B609",
"N. c #81B709",
"B. c #82B709",
"V. c #89B509",
"C. c #8AB609",
"Z. c #8BB609",
"A. c #8CB609",
"S. c #8CB709",
"D. c #82B808",
"F. c #82B809",
"G. c #83B809",
"H. c #83B909",
"J. c #83BA09",
"K. c #84B809",
"L. c #82BD08",
"P. c #81BF08",
"I. c #86BD09",
"U. c #8ABB0A",
"Y. c #8DB90A",
"T. c #8FBA0A",
"R. c #8ABC0A",
"E. c #8BBC0A",
"W. c #8CBC0A",
"Q. c #8EBE0B",
"!. c #8EBF0B",
"~. c #90BA0A",
"^. c #94BC0B",
"/. c #99BF0C",
"(. c #87C109",
"). c #8CC509",
"_. c #90C00B",
"`. c #90C20B",
"'. c #98C00B",
"]. c #99C00B",
"[. c #99C10C",
"{. c #9AC10C",
"}. c #9BC20C",
"|. c #9DC20C",
" X c #9DC30C",
".X c #9DC50C",
"XX c #9EC40C",
"oX c #9CC70D",
"OX c #94C90B",
"+X c #9AC90C",
"@X c #9DC90D",
"#X c #9ECA0E",
"$X c #9FCD0D",
"%X c #A1C60D",
"&X c #A2C80C",
"*X c #A0CB0D",
"=X c #A1CB0E",
"-X c #A0CD0D",
";X c #A0CE0D",
":X c #A1CE0D",
">X c #A3CC0E",
",X c #A2CD0E",
"<X c #A4CD0E",
"1X c #A4CE0E",
"2X c #A4CF0E",
"3X c #A7CF0E",
"4X c #A2D00E",
"5X c #A3D00E",
"6X c #A8D00F",
"7X c #A9D10F",
"8X c #A9D20F",
"9X c #AAD20F",
"0X c #ABD40F",
"qX c #ABD50F",
"wX c #ACD50F",
"eX c #ACD60F",
"rX c #ADD70F",
"tX c #A9D80E",
"yX c #B1DD0F",
"uX c #AAD210",
"iX c #AED410",
"pX c #AED510",
"aX c #AFD510",
"sX c #AFD610",
"dX c #B0D510",
"fX c #B0D610",
"gX c #B0D710",
"hX c #B1D710",
"jX c #B1D910",
"kX c #B3DA10",
"lX c #B4DB10",
"zX c #B5DB10",
"xX c #B4DB11",
"cX c #B1DC10",
"vX c #B5DC10",
"bX c #B5DD11",
"nX c #B6DD10",
"mX c #B9DE11",
"MX c #B7E210",
"NX c #BAE312",
"BX c #B9E611",
"VX c #BCE511",
"CX c #C2EC12",
"ZX c None",
/* pixels */
"ZXZXZXZXZXZXZXZXZXZXZXZXZXZXZXZXZXZXZXZXZXZXZXZXZXZXZXZXZXZXZXZXZXZXZX",
"ZXZXZXZXZXZXZXZXZXZXZXZXZXZXZXZXZXZXZXZXZXZXZXZXZXZXZXZXZXZXZXZXZXZXZX",
"ZXZXZXZXZXZXZXZXZXZXZXZXZXZXZXZXZXZXZXZXZXZXZXZXZXZXZXZXZXZXZXZXZXZXZX",
"ZXZXZXZXZXZXZXZXZXZXZXZXZXZXZXZXZXZXZXZXZXZXZXZXZXZXZXZXZXZXZXZXZXZXZX",
"ZXZXZXZXZXZXZXZXZXZXZXZXZXZXZXZXZXZXZXZXZXZXZXZXZXZXZXZXZXZXZXZXZXZXZX",
"ZXZXZXZXZXZXZXZXZXZXZXZXZXZXZXZXZXZXZXZXZXZXZXZXZXZXZXZXZXZXZXZXZXZXZX",
"ZXZXZXZXZXZXZX& ZX@           $ % . X X . X   + # @ ZX* ZXZXZXZXZXZXZX",
"ZXZXZXZXZXZXo y.C.A.^.}.{.}.].Z.V.~.T.~.T.T.~.S.S.Z.Y.t.O ZXZXZXZXZXZX",
"ZXZXZXZXZXZXZX9.L.[ e.vXrXzX+X7.g.^ ) ( ( _ ~ 4.0.5.q.r.ZXZXZXZXZXZXZX",
"ZXZXZXZXZXZX  |.mX..2.aX3XpXW.K.<Xh z l l z j { B.d.2X%X  ZXZXZXZXZXZX",
"ZXZXZXZXZXZX  '.lXX.6.fX6XsX!.N.*Xl F V V G l | n.s.$X X  ZXZXZXZXZXZX",
"ZXZXZXZXZXZX  [.vXX.3.fX6XsXQ.B.=Xk Z b v S l | m.s.;XXX  ZXZXZXZXZXZX",
"ZXZXZXZXZXZX  [.vXX.3.fX6XsXQ.B.=Xk C v v A l | n.s.;XXX  ZXZXZXZXZXZX",
"ZXZXZXZXZXZX  ].vXX.3.sX6XaXQ.B.*Xk C v v A l | n.s.-XXX  ZXZXZXZXZXZX",
"ZXZXZXZXZXZXZX/.vXX.3.fX6XsXQ.B.=Xk C v v A l } n.s.:X XZXZXZXZXZXZXZX",
"ZXZXZXZXZXZX  .XnX1.8.gX8XhX_.H.,Xz B m n D z  .F.h.$X&X  ZXZXZXZXZXZX",
"ZXZXZXZXZXZXZXy i = > p 8 9 2 5 7 - 1 , , < ; 4 3 : 6 a ZXZXZXZXZXZXZX",
"ZXZXZXZXZXZXZXZXu b.o.0 -.>.<.d *.] q r e w t ` ' v.s ZXZXZXZXZXZXZXZX",
"ZXZXZXZXZXZXZXZX=.NX`.P qXjXbXj.5XI.k T I P ! c.J.cX;.ZXZXZXZXZXZXZXZX",
"ZXZXZXZXZXZXZXZXO.kXU.z >X7XiXu.oXM.f H c z E f.l.0X$.ZXZXZXZXZXZXZXZX",
"ZXZXZXZXZXZXZXZX#.xXE.x 1X9XsXp.@XB.g L N x W h.z.wX%.ZXZXZXZXZXZXZXZX",
"ZXZXZXZXZXZXZXZX#.xXE.x 1X9XsXp.@XB.g L N x Q h.z.eX%.ZXZXZXZXZXZXZXZX",
"ZXZXZXZXZXZXZXZX#.xXE.x 1X9XsXp.@XB.g L N x Q h.x.eX%.ZXZXZXZXZXZXZXZX",
"ZXZXZXZXZXZXZXZX#.xXE.x 1X9XsXp.@XB.g L N x W h.z.eX%.ZXZXZXZXZXZXZXZX",
"ZXZXZXZXZXZXZXZX#.xXE.x 1X9XsXp.@XB.g L N x Q h.z.eX%.ZXZXZXZXZXZXZXZX",
"ZXZXZXZXZXZXZXZX#.xXE.x 1X9XaXp.@XB.g K N x Q h.x.eX%.ZXZXZXZXZXZXZXZX",
"ZXZXZXZXZXZXZXZX@.zXR.x 1X9XsXp.@XG.g J M x W h.z.eX$.ZXZXZXZXZXZXZXZX",
"ZXZXZXZXZXZXZXZX:.CXOXU yXMXVXk.tX).n R Y U / P.(.BX,.ZXZXZXZXZXZXZXZX",
"ZXZXZXZXZXZXZXZX+.lXR.z 1XuXdXi.#XD.g L v L g w.a.4X&.ZXZXZXZXZXZXZXZX",
"ZXZXZXZXZXZXZXZXZXZXZXZXZXZXZXZXZXZXZXZXZXZXZXZXZXZXZXZXZXZXZXZXZXZXZX",
"ZXZXZXZXZXZXZXZXZXZXZXZXZXZXZXZXZXZXZXZXZXZXZXZXZXZXZXZXZXZXZXZXZXZXZX",
"ZXZXZXZXZXZXZXZXZXZXZXZXZXZXZXZXZXZXZXZXZXZXZXZXZXZXZXZXZXZXZXZXZXZXZX",
"ZXZXZXZXZXZXZXZXZXZXZXZXZXZXZXZXZXZXZXZXZXZXZXZXZXZXZXZXZXZXZXZXZXZXZX",
"ZXZXZXZXZXZXZXZXZXZXZXZXZXZXZXZXZXZXZXZXZXZXZXZXZXZXZXZXZXZXZXZXZXZXZX",
"ZXZXZXZXZXZXZXZXZXZXZXZXZXZXZXZXZXZXZXZXZXZXZXZXZXZXZXZXZXZXZXZXZXZXZX"
};
