/* XPM */
static char *result[] = {
/* columns rows colors chars-per-pixel */
"35 35 228 2 ",
"   c black",
".  c #040703",
"X  c #1B0101",
"o  c #141710",
"O  c #2D0705",
"+  c #3A0302",
"@  c #281814",
"#  c #311711",
"$  c #352117",
"%  c #3B2322",
"&  c #470302",
"*  c #520201",
"=  c #5A0000",
"-  c #52120E",
";  c #630002",
":  c #6A0102",
">  c #680B07",
",  c #750003",
"<  c #7C0105",
"1  c #760C0A",
"2  c #751B13",
"3  c #73110D",
"4  c #492417",
"5  c #55271B",
"6  c #6C261C",
"7  c #79241A",
"8  c #7C3D00",
"9  c #4D3326",
"0  c #69392A",
"q  c #77382A",
"w  c #5A4634",
"e  c #6B4433",
"r  c #734432",
"t  c #7B4532",
"y  c #7D4D3B",
"u  c #754B38",
"i  c #7F523E",
"p  c #73402C",
"a  c #00005E",
"s  c #000065",
"d  c #432E42",
"f  c #00405F",
"g  c #78664F",
"h  c #764F77",
"j  c #840206",
"k  c #8D0105",
"l  c #8E080C",
"z  c #950006",
"x  c #9B0106",
"c  c #95050A",
"v  c #990A09",
"b  c #890912",
"n  c #8F141A",
"m  c #A30006",
"M  c #AA0007",
"N  c #AC0209",
"B  c #A40209",
"V  c #B30004",
"C  c #BB0005",
"Z  c #B40108",
"A  c #B8060D",
"S  c #AB0E12",
"D  c #812E25",
"F  c #C90207",
"G  c #D40000",
"H  c #DA0000",
"J  c #D2020A",
"K  c #DC020B",
"L  c #C6161B",
"P  c #C30E13",
"I  c #E40000",
"U  c #ED0000",
"Y  c #E2030D",
"T  c #EB050D",
"R  c #EE090E",
"E  c #FE0000",
"W  c #F4050D",
"Q  c #FE060D",
"!  c #F6090F",
"~  c #F90409",
"^  c #EA0B13",
"/  c #FD0C12",
"(  c #F30A11",
")  c #EB191B",
"_  c #FE1216",
"`  c #FF181C",
"'  c #CF271F",
"]  c #C81F23",
"[  c #F21F22",
"{  c #CA2224",
"}  c #D72729",
"|  c #FD2225",
" . c #F82728",
".. c #ED3131",
"X. c #904700",
"o. c #834634",
"O. c #8B4F3A",
"+. c #89523C",
"@. c #93543E",
"#. c #9A563E",
"$. c #A55A37",
"%. c #AC683E",
"&. c #8D5A44",
"*. c #935D45",
"=. c #985C44",
"-. c #A25A41",
";. c #BE5354",
":. c #9A644B",
">. c #9B6955",
",. c #A4674C",
"<. c #A66C52",
"1. c #A96D52",
"2. c #A86858",
"3. c #B86C5A",
"4. c #AE735B",
"5. c #A9735A",
"6. c #B2745A",
"7. c #B4795D",
"8. c #BC7B5D",
"9. c #BA7659",
"0. c #B36842",
"q. c #92676F",
"w. c #B97A61",
"e. c #A5796A",
"r. c #D55758",
"t. c #F95A5B",
"y. c #ED4E4F",
"u. c #CB685C",
"i. c #F6605F",
"p. c #EA5F60",
"a. c #C86861",
"s. c #C67965",
"d. c #C57777",
"f. c #FA6868",
"g. c #F17676",
"h. c #998D6E",
"j. c #BC8264",
"k. c #B88B6C",
"l. c #BA9179",
"z. c #D1815B",
"x. c #C28265",
"c. c #CA8C6C",
"v. c #C98866",
"b. c #D38C6C",
"n. c #D4846F",
"m. c #DC936E",
"M. c #C98773",
"N. c #DA9475",
"B. c #CF9570",
"V. c #E79A79",
"C. c #F79478",
"Z. c #EB896D",
"A. c #D5A57C",
"S. c #E8A57D",
"D. c #FBA179",
"F. c #577797",
"G. c #3B8A98",
"H. c #528EBA",
"J. c #669CB3",
"K. c #57ABB6",
"L. c #6FB2DB",
"P. c #46A9E9",
"I. c #78BEE4",
"U. c #69C9ED",
"Y. c #6FD5F3",
"T. c #958C99",
"R. c #BC9999",
"E. c #BEAA82",
"W. c #ACAD93",
"Q. c #B5ADAC",
"!. c #DA8B81",
"~. c #FA8686",
"^. c #E69898",
"/. c #F18F87",
"(. c #D3AA8C",
"). c #E9AA84",
"_. c #FEAB85",
"`. c #FEAB8A",
"'. c #F3AC89",
"]. c #E6B68B",
"[. c #FDBB8D",
"{. c #FBB48B",
"}. c #FDBD93",
"|. c #F7BB97",
" X c #D1AFAF",
".X c #F6A9A8",
"XX c #ECB5B5",
"oX c #EDA6A5",
"OX c #AFC3BE",
"+X c #D7C697",
"@X c #E8C899",
"#X c #FBC395",
"$X c #FEC599",
"%X c #FDCB9D",
"&X c #F4C69E",
"*X c #E2D59F",
"=X c #DBC8BC",
"-X c #F9C9A1",
";X c #FED3A4",
":X c #FEDCAB",
">X c #FFD5A8",
",X c #EDC4A1",
"<X c #FDE2AD",
"1X c #FFE5A9",
"2X c #FEE3B1",
"3X c #FEEBB4",
"4X c #FCE8BD",
"5X c #FFF1BE",
"6X c #819EC6",
"7X c #B1CEF6",
"8X c #8DCFEF",
"9X c #DAD3CF",
"0X c #CED2DA",
"qX c #CECFD2",
"wX c #EBD6D6",
"eX c #F8DCDB",
"rX c #EFCDC5",
"tX c #FEEDC6",
"yX c #FFFDC5",
"uX c #FEFBC7",
"iX c #FFFFDB",
"pX c #C6CEE5",
"aX c #F9E6E6",
"sX c #FFF6E9",
"dX c #FEFDFD",
"fX c #F4F5F5",
"gX c #E9EEF0",
"hX c None",
/* pixels */
"hXhXhXhXhXhXhXhXhXhXhXhXhXhX~ (  ...[ ^ H hXhXhXhXhXhXhXhXhXhXhXhXhXhX",
"hXhXhXhXhXhXhXhXhXhXhXhX( / | ` E E E Q  .Y J hXhXhXhXhXhXhXhXhXhXhXhX",
"hXhXhXhXhXhXhXhXhXhXW / _ | E E f.C.f.~ E ) Y J A hXhXhXhXhXhXhXhXhXhX",
"hXhXhXhXhXhXhXhXhX! / _ | E ~.eXdXdXdXeX~.U } J F B hXhXhXhXhXhXhXhXhX",
"hXhXhXhXhXhXhXhX( / / | E ~.dXXX~.dXoXoXfX!.I } F Z B hXhXhXhXhXhXhXhX",
"hXhXhXhXhXhXhXR Q / ` ` E aXdXy. .i...} wX9XG G L V N x hXhXhXhXhXhXhX",
"hXhXhXhXhXhX^ Q / _ | E t.dX.Xf.aXf.eXg.!.qXr.G { V M M c hXhXhXhXhXhX",
"hXhXhXhXhXhXQ / / _ ` E f.eXU ^.fXeXaX^.G  Xr.G ] Z N m M hXhXhXhXhXhX",
"hXhXhXhXhXR Q / _ _ ` / ~ XX^.XXwXwXrX Xd.R.{ G L C N M x z hXhXhXhXhX",
"hXhXhXhXY Q ! / / _ ` ` E t.^.f.p.y.r.r.d.;.G L C Z N M m m k hXhXhXhX",
"hXhXhXhXY ! ! / ( / ( ~ ) U U I H H G G G F P C Z V M m m x k hXhXhXhX",
"hXhXhXhXK T T R ( ( K F N S n n b b b b b c B B M M M m x x c hXhXhXhX",
"hXhXhXhXT K K T K S j < , 1 3 2 7 7 7 2 2 3 ; : , j z x z z z k hXhXhX",
"hXhXhXJ Y J K F j : > * + 5 y D t y O.o.o.5 O + * = ; j k k z k hXhXhX",
"hXhXhXF K J Z : : 6 O       0 O.O.O.O.&.t       X 6 * * < j k k hXhXhX",
"hXhXhXF J C < > q 0 $ e t 4 @ &.#.@.@.@.% # y u @ 0 t - = j z k hXhXhX",
"hXhXhXhX' S ; 5 o.q o.$.$.%.X.o.-.#.#.O.8 ,.-.-.=.O.=.t & < c b hXhXhX",
"hXhXhXhXC v & <.c.k.v.(.9X0X=X).].].S.s.R.OXQ.e.#.,.,.*.  > k hXhXhXhX",
"hXhXhXhXV.j * m.;X<X:XsXfXY.U.rX1X:X[.(.L.P.pX9Xc.4.1.*.. * D hXhXhXhX",
"hXhXhX1X5Xl.& v.;X<XtXdX8XG.J.OX3X<X[.Q.K.F.L.wX,Xb.8.&.  4 *.7.hXhXhX",
"hXhX#X`.%X(.O 9.;X1XtXdXL.9 s W.yX3X#XW.f d H.0X&Xm.j.+.  r <.,.<.hXhX",
"hXhX#X%XD.j.+ %.;X3XtXdXU.s F.'.;X%X}.).h s H.qX@Xm.9.t X r :.,.:.hXhX",
"hXhX;X1X{.9.X j.<X3XtXdX7XT.1XtX5X3X:X-XD.q.6X9X&XV.b.:.  0 O.,.>.hXhX",
"hXhXhX3X3XA.: >X+Xh.3XiXsX:X5XuXuX5X<X;X[.N.=X4X|.5.7.b.5 0 @.,.<.hXhX",
"hXhXhX:XyX*Xv.3Xl.. g E.*X:X3X3X2X:X%X#X).v.B.B.y   e c.:.p @.<.hXhXhX",
"hXhXhX;XyX3X%X:X(.  # . :.%X%X%X%X#X].S.b.x.u       r j.4.:.1.<.hXhXhX",
"hXhXhXhX%X3X#X>X*X$   9 e S.'.].).).N.c.x.s.e . $   :.j.8.j.1.hXhXhXhX",
"hXhXhXhXhXhXV.%X<X@Xw   o +.b.m.n.v.j.j.v.+.  . @ :.4.j.7.hXhXhXhXhXhX",
"hXhXhXhXhXhXhX{.$X:X(.      9 <.7.w.w.4.e       i 7.j.j.hXhXhXhXhXhXhX",
"hXhXhXhXhXhXhXC.}.}.}.c.i y 4     5 $     e u &.4.7.v.j.hXhXhXhXhXhXhX",
"hXhXhXhXhXhXhXhXZ.`.`.{.`.'.).k.e.:.+.u :.<.4.7.7.j.7.hXhXhXhXhXhXhXhX",
"hXhXhXhXhXhXhXhXhXs.!.'.`.}.}.#X{.V.s.9.4.4.4.w.7.>.hXhXhXhXhXhXhXhXhX",
"hXhXhXhXhXhXhXhXhXhXhXl.!.`.`.`.V.w.3.3.3.7.5.>.hXhXhXhXhXhXhXhXhXhXhX",
"hXhXhXhXhXhXhXhXhXhXhXhXhXn.C./.C.n.s.s.3.>.hXhXhXhXhXhXhXhXhXhXhXhXhX",
"hXhXhXhXhXhXhXhXhXhXhXhXhXhXhXu.a.a.u.2.hXhXhXhXhXhXhXhXhXhXhXhXhXhXhX"
};
