/* XPM */
static char *result[] = {
/* columns rows colors chars-per-pixel */
"35 35 184 2 ",
"   c #1F1F18",
".  c #242018",
"X  c #282118",
"o  c #292219",
"O  c #2D2218",
"+  c #2D2219",
"@  c #2E2319",
"#  c #32241A",
"$  c #372519",
"%  c #34251A",
"&  c #37271B",
"*  c #392318",
"=  c #38261A",
"-  c #39261A",
";  c #39271B",
":  c #3A271B",
">  c #3C261A",
",  c #3C271B",
"<  c #3D271B",
"1  c #3E271B",
"2  c #3D281B",
"3  c #3E281B",
"4  c #3E281C",
"5  c #3E291C",
"6  c #3F291C",
"7  c #41291B",
"8  c #41291C",
"9  c #42291C",
"0  c #412A1C",
"q  c #422A1C",
"w  c #432A1C",
"e  c #432B1C",
"r  c #422A1D",
"t  c #432B1D",
"y  c #422B1E",
"u  c #442B1D",
"i  c #482819",
"p  c #4F2918",
"a  c #4F2A18",
"s  c #4C2B1A",
"d  c #482A1C",
"f  c #482B1C",
"g  c #4A2B1C",
"h  c #482D1E",
"j  c #4F2E1D",
"k  c #532613",
"l  c #572913",
"z  c #532814",
"x  c #532914",
"c  c #542814",
"v  c #552914",
"b  c #542815",
"n  c #542915",
"m  c #552915",
"M  c #562914",
"N  c #562915",
"B  c #552A15",
"V  c #562A15",
"C  c #572A15",
"Z  c #562A16",
"A  c #572A16",
"S  c #562B17",
"D  c #592914",
"F  c #582A16",
"G  c #582B16",
"H  c #592B16",
"J  c #5F2D16",
"K  c #5E2C17",
"L  c #5E2D17",
"P  c #5F2D17",
"I  c #5E2E17",
"U  c #502E1D",
"Y  c #512E1D",
"T  c #522F1E",
"R  c #602C16",
"E  c #642F19",
"W  c #663019",
"Q  c #6E361C",
"!  c #653621",
"~  c #6D3820",
"^  c #6E3820",
"/  c #6E3920",
"(  c #6F3921",
")  c #703921",
"_  c #713921",
"`  c #733E25",
"'  c #854123",
"]  c #804225",
"[  c #814225",
"{  c #824225",
"}  c #864224",
"|  c #874224",
" . c #864324",
".. c #874324",
"X. c #854426",
"o. c #874427",
"O. c #884325",
"+. c #894425",
"@. c #894426",
"#. c #894427",
"$. c #8B4526",
"%. c #8A4527",
"&. c #8C4527",
"*. c #834428",
"=. c #8D4628",
"-. c #8D4728",
";. c #8E4728",
":. c #8B492B",
">. c #904728",
",. c #914829",
"<. c #944B29",
"1. c #954B29",
"2. c #944B2A",
"3. c #954B2A",
"4. c #954C2B",
"5. c #9A4E2B",
"6. c #9B4F2B",
"7. c #9C4F2B",
"8. c #9A4F2E",
"9. c #9C4E2C",
"0. c #9C4F2C",
"q. c #9D4F2C",
"w. c #9E4F2C",
"e. c #9F4F2C",
"r. c #9F502C",
"t. c #9F512C",
"y. c #9E512D",
"u. c #9D502E",
"i. c #9E512E",
"p. c #A0512C",
"a. c #A0502D",
"s. c #A0512D",
"d. c #A1512D",
"f. c #A2522D",
"g. c #A3522D",
"h. c #A6542E",
"j. c #A7542F",
"k. c #A15431",
"l. c #A75530",
"z. c #A75630",
"x. c #A85530",
"c. c #A95530",
"v. c #A85730",
"b. c #A85631",
"n. c #A95631",
"m. c #A85731",
"M. c #A95731",
"N. c #AA5630",
"B. c #AA5631",
"V. c #AA5731",
"C. c #AB5731",
"Z. c #A95732",
"A. c #AA5732",
"S. c #AB5732",
"D. c #AC5731",
"F. c #AB5831",
"G. c #AA5832",
"H. c #AB5832",
"J. c #AE5831",
"K. c #AC5832",
"L. c #AD5832",
"P. c #AD5932",
"I. c #AC5833",
"U. c #AE5932",
"Y. c #AE5933",
"T. c #AF5A33",
"R. c #AE5B35",
"E. c #B15B34",
"W. c #B15C35",
"Q. c #B35E35",
"!. c #B25D36",
"~. c #B35D36",
"^. c #B35D37",
"/. c #B45D37",
"(. c #B45E37",
"). c #B55E37",
"_. c #B65F37",
"`. c #B75F38",
"'. c #B86038",
"]. c #B96139",
"[. c #BA6239",
"{. c #BB6239",
"}. c #BC6239",
"|. c None",
/* pixels */
"Q.}.{.{.{.{.{.{.{.{.{.{.{.{.}.{.y.|.R.}.}.{.{.{.{.{.{.{.{.{.{.{.{.{.s.",
"r.U.M.V.V.V.V.V.V.V.A.V.V.V.V.K.;.y 0.K.V.V.V.V.V.V.V.V.V.V.V.V.V.K...",
"r.H.n.Z.Z.Z.Z.Z.Z.Z.Z.Z.Z.Z.Z.S.o.> 2.H.Z.Z.Z.Z.Z.Z.Z.Z.Z.Z.Z.Z.n.V.| ",
"r.K.Z.n.n.n.n.n.n.n.n.n.n.n.n.C.@., 3.C.n.n.n.n.n.n.n.n.n.n.n.n.m.H. .",
"r.K.Z.n.n.n.n.n.n.n.n.n.n.n.n.C.@., 3.C.n.n.n.n.n.n.n.n.n.n.n.n.m.H. .",
"r.K.Z.n.n.n.n.n.n.n.n.n.n.n.n.C.@., 3.C.n.n.n.n.n.n.n.n.n.n.n.n.m.G. .",
"r.K.Z.n.n.n.n.n.n.n.n.n.n.n.n.C.#., 3.C.n.n.n.n.n.n.n.n.n.n.n.n.m.H. .",
"r.H.Z.n.n.n.n.n.n.n.n.n.n.n.b.C.#.< 3.C.b.n.n.n.n.n.n.n.n.n.n.n.m.A. .",
"t.K.Z.n.n.n.n.n.n.n.n.n.n.n.n.C.%.< 3.C.n.n.n.n.n.n.n.n.n.n.n.n.M.H.O.",
"6.H.n.n.n.n.n.n.n.n.n.n.n.n.n.C.$.1 1.C.b.n.n.n.n.n.n.n.n.n.n.n.v.V.' ",
"R N x z c c z N A F m b b n n v p & a M m m m m N H H G m V Z Z C H D ",
"|.w 9 9 8 8 w % @ o 3 q 8 8 8 8 u h t 8 0 0 8 q 6 @ + # w 8 0 9 e 7 |.",
"E.}.(.(.(.^.'.8.+ ` ).(.(.(.(.(.(./.(.(.(.(.(.).W.! ; k.`.^.(.(.(.{.u.",
"d.U.H.C.C.C.L.a.d X.J.C.C.C.C.C.C.S.C.C.C.C.C.K.N._ T h.K.C.C.C.F.P.O.",
"r.H.b.b.b.b.V.9.d ] N.b.b.b.b.b.b.b.b.b.b.b.b.n.j.~ j d.n.b.b.b.v.V.| ",
"r.K.Z.n.n.n.S.q.d [ C.n.n.n.n.n.n.n.n.n.n.n.n.V.x.^ U f.V.n.n.n.M.H...",
"r.K.Z.n.n.b.C.q.d [ C.n.n.n.n.n.n.n.n.n.n.n.n.V.l./ U f.V.n.n.n.m.H...",
"r.K.Z.n.n.b.C.q.d [ C.n.n.n.n.n.n.n.n.n.n.n.n.V.x.( U f.V.n.n.n.m.H...",
"r.K.Z.n.n.n.C.q.f [ C.n.n.n.n.n.n.n.n.n.n.n.n.V.x.( U f.V.n.n.n.m.G...",
"r.H.Z.n.n.b.V.q.f [ C.b.n.n.n.n.n.n.n.n.n.n.n.M.l.( U f.V.b.n.n.m.A...",
"p.K.Z.n.n.n.S.q.f [ C.n.n.n.n.n.n.n.n.n.n.n.n.V.x.( U f.V.n.n.n.m.H.O.",
"7.K.A.V.V.B.H.e.g { D.B.V.V.V.V.B.B.B.V.V.V.B.C.c.) Y g.C.B.V.V.M.H.} ",
"E F B m m m m S 2 s C n m m m m F A F m m m m m N i 4 S m m m m B F l ",
"|.- = = = = = : r 5 = = = = = = X O . = = = = = = 6 r : = = = = - $ |.",
"W.[.^.^.^.^.^.~.!.!.^.^.^.^.!.).*.  :._.!.^.^.^.^.!.!.~.^.^.^.^.^.].i.",
"d.T.I.K.K.K.K.K.K.K.K.K.K.K.K.U.>.< 5.U.K.K.K.K.K.K.K.K.K.K.K.K.H.Y.+.",
"w.H.b.b.b.b.b.b.b.b.b.b.b.b.b.V.&.< <.V.b.b.b.b.b.b.b.b.b.b.b.b.z.M.| ",
"r.K.Z.n.n.n.n.n.n.n.n.n.n.n.n.C.=.< 3.C.n.n.n.n.n.n.n.n.n.n.n.n.M.H...",
"r.K.Z.n.n.n.n.n.n.n.n.n.n.n.n.C.=.< 3.C.n.n.n.n.n.n.n.n.n.n.n.n.m.H...",
"r.K.Z.n.n.n.n.n.n.n.n.n.n.n.n.C.=.< 3.C.n.n.n.n.n.n.n.n.n.n.n.n.m.H...",
"r.K.Z.n.n.n.n.n.n.n.n.n.n.n.n.C.=.< 3.C.b.n.n.n.n.n.n.n.n.n.n.n.m.H...",
"r.H.Z.n.n.n.n.n.n.n.n.n.n.n.b.C.=.< 3.C.b.n.n.n.n.n.n.n.n.n.n.n.m.A...",
"r.H.n.m.m.Z.Z.m.Z.m.Z.Z.Z.Z.Z.H.-.3 4.H.Z.Z.Z.Z.Z.Z.Z.m.Z.Z.Z.Z.Z.V.O.",
"w.T.H.K.K.K.K.K.K.K.K.K.K.K.H.P.,.* 5.U.H.K.K.K.K.K.K.K.K.K.K.K.H.Y.| ",
"Q P L P P L P P L P P L P P P L J |.W I P P P P P P P P L P P L P K k "
};
