/* XPM */
static char *d42ac370eb8448ebdba380504835262emJqSfi7ztLU1BV6m[] = {
/* columns rows colors chars-per-pixel */
"77 82 256 2 ",
"   c None",
".  c #1A1418",
"X  c #100A0C",
"o  c #291618",
"O  c #2B1B23",
"+  c #362829",
"@  c #2E2426",
"#  c #1B1631",
"$  c #531110",
"%  c #790304",
"&  c #720F0E",
"*  c #493230",
"=  c #6C3330",
"-  c #6B1C28",
";  c #6C463A",
":  c #59423D",
">  c #03195A",
",  c #151743",
"<  c #031767",
"1  c #001A7C",
"2  c #011774",
"3  c #0E1871",
"4  c #06247B",
"5  c #0D256D",
"6  c #34306E",
"7  c #2B2757",
"8  c #5F285E",
"9  c #34487A",
"0  c #194D6E",
"q  c #72514C",
"w  c #4F516E",
"e  c #6E6F76",
"r  c #625763",
"t  c #870303",
"y  c #9D0203",
"u  c #950405",
"i  c #8A1513",
"p  c #971616",
"a  c #900F10",
"s  c #A70404",
"d  c #B80506",
"f  c #AF1315",
"g  c #921924",
"h  c #AF1929",
"j  c #8A342D",
"k  c #B12A31",
"l  c #882A1C",
"z  c #C80507",
"x  c #D90607",
"c  c #D01117",
"v  c #E80607",
"b  c #F70604",
"n  c #E91418",
"m  c #F81619",
"M  c #EB0E12",
"N  c #CE1926",
"B  c #FC1B23",
"V  c #EA1A25",
"C  c #CD2632",
"Z  c #FB242A",
"A  c #FC2A37",
"S  c #EA292E",
"D  c #D5281F",
"F  c #AD761E",
"G  c #99732D",
"H  c #AD7B22",
"J  c #A57B28",
"K  c #B17E24",
"L  c #965428",
"P  c #B1344F",
"I  c #982E54",
"U  c #F13745",
"Y  c #CE314D",
"T  c #87584B",
"R  c #8F4F4A",
"E  c #AB5553",
"W  c #946852",
"Q  c #AB6E57",
"!  c #926D70",
"~  c #B67966",
"^  c #AC756D",
"/  c #914E6E",
"(  c #D64751",
")  c #EF4751",
"_  c #CC766C",
"`  c #EF6C6E",
"'  c #D9675D",
"]  c #D85325",
"[  c #BA8629",
"{  c #B88528",
"}  c #B48D35",
"|  c #C38C2C",
" . c #C89635",
".. c #CB9634",
"X. c #D7A53C",
"o. c #CBA838",
"O. c #E0A43E",
"+. c #FDF538",
"@. c #F5DE21",
"#. c #B89648",
"$. c #B68971",
"%. c #AFA361",
"&. c #C59C4B",
"*. c #C8A648",
"=. c #D7A945",
"-. c #D9B44A",
";. c #C9A954",
":. c #D7B957",
">. c #CFB257",
",. c #E5AC46",
"<. c #E8B54A",
"1. c #E8B954",
"2. c #F6BD54",
"3. c #F3B84D",
"4. c #C88A74",
"5. c #D68B76",
"6. c #D7947B",
"7. c #C88971",
"8. c #EF9578",
"9. c #D6BA65",
"0. c #CDAD66",
"q. c #F5A67B",
"w. c #D9C559",
"e. c #E8C859",
"r. c #F8C65A",
"t. c #FAD35E",
"y. c #EECF53",
"u. c #D9C977",
"i. c #DAC66B",
"p. c #E5CB66",
"a. c #EAD569",
"s. c #FADA68",
"d. c #EED271",
"f. c #F9E36C",
"g. c #FBE875",
"h. c #FEF47A",
"j. c #FFF97C",
"k. c #EFE176",
"l. c #FFF34A",
"z. c #011B85",
"x. c #011996",
"c. c #042788",
"v. c #042C94",
"b. c #063198",
"n. c #17318E",
"m. c #27388E",
"M. c #0427A9",
"N. c #0229B6",
"B. c #0A38B2",
"V. c #1629B0",
"C. c #603993",
"Z. c #314589",
"A. c #1445B9",
"S. c #2F4CB4",
"D. c #266FB3",
"F. c #4F4E93",
"G. c #71708D",
"H. c #5153A9",
"J. c #6B74A3",
"K. c #5F5D9B",
"L. c #0332CB",
"P. c #253CC7",
"I. c #0843C5",
"U. c #194AD9",
"Y. c #1249D0",
"T. c #2751D5",
"R. c #1D52E6",
"E. c #1A55ED",
"W. c #2156EB",
"Q. c #2359ED",
"!. c #2456E5",
"~. c #245CF3",
"^. c #265EF9",
"/. c #315CE9",
"(. c #2B64FD",
"). c #2A63FB",
"_. c #3068FE",
"`. c #2A61EF",
"'. c #2871CE",
"]. c #4762CD",
"[. c #8A7A94",
"{. c #87529F",
"}. c #DF7C85",
"|. c #903F8B",
" X c #71869F",
".X c #6D91DE",
"XX c #1EACEA",
"oX c #87869B",
"OX c #919392",
"+X c #B09193",
"@X c #898CA4",
"#X c #9496A9",
"$X c #959BB4",
"%X c #8F91A9",
"&X c #9AA3BA",
"*X c #96B3B5",
"=X c #AEACB6",
"-X c #AAA49E",
";X c #D89B82",
":X c #D1918D",
">X c #E6958A",
",X c #D6AD94",
"<X c #FBAA84",
"1X c #FEB48B",
"2X c #FEB88B",
"3X c #FDBA94",
"4X c #E9A789",
"5X c #D3B0B3",
"6X c #EAB3B1",
"7X c #E19DA7",
"8X c #D1CB90",
"9X c #FFCA9C",
"0X c #FFC499",
"qX c #F0D68B",
"wX c #FFFE84",
"eX c #FFFF8B",
"rX c #FAF585",
"tX c #FFFF93",
"yX c #FDFC99",
"uX c #F0E790",
"iX c #FDCAA3",
"pX c #FED5A7",
"aX c #F6D7B0",
"sX c #F8E7B0",
"dX c #D7CCAB",
"fX c #9DA7C4",
"gX c #A6ADC4",
"hX c #ABB3CA",
"jX c #B5B8C7",
"kX c #B1BAD4",
"lX c #91ABE6",
"zX c #D8B7C3",
"xX c #BAC4D8",
"cX c #BCC2CC",
"vX c #BCC8E6",
"bX c #97C2F8",
"nX c #C5CBDB",
"mX c #D4CED5",
"MX c #E9CFD3",
"NX c #CBD4E5",
"BX c #CBD5E8",
"VX c #D6DCE8",
"CX c #C9D4ED",
"ZX c #DCE3EC",
"AX c #DAE5F6",
"SX c #E4EBF5",
"DX c #E5ECF7",
"FX c #EDF3FB",
"GX c #E8F2FB",
"HX c #F5FAFE",
"JX c #FCFEFF",
"KX c #F2F6FC",
"LX c #EAE8EA",
"PX c #ECE3D4",
"IX c #BEC49D",
"UX c #7F8679",
/* pixels */
"                                                                                                                      GXSXGXGX                            ",
"                                                                                                                  GXKXSXGXFXGXGXAXAXGX                    ",
"                                                                                                                GXKXDXSXKXFXDXAXAXAXAXAXAX                ",
"                                                                                                                GXFXSXKXKXSXVXSXGXGXGXSXAXAXAX            ",
"                                                                                                              ZXSXLXFXKXSXZXFXKXFXGXSXAXAXAXAXAX          ",
"                                                                            d.                          KXJXJXFXZXNXKXGXZXSXKXFXAXZXAXZXAXAXAXAXAX        ",
"                                                            ) ` 8.q.9.;.>.:.*.:.>.:.i.i.i.p.i.          JXJXJXHXZXxXGXZXZXKXFXZXZXSXAXGXAXAXAXAXCXCX      ",
"                                                    U A A Z B m B B S ) ' q.0.g.k.k.a.w.>.*.;.:.i.9.i.LXHXHXGXAXnXcXZXmXFXFXZXVXFXHXGXGXGXGXGXGXAXCX      ",
"                                                U A m m Z U U B b m m B V U ` 3XuXyXyXyXyXyXrXk.w.>.9.dXSXZXZXNXjXoXcXxXFXZXVXLXHXFXSXAXAXAXAXAXAXCX      ",
"                                          qX` ) B B U }.6X7X7X7X}.U M M n V S Y ' qXyXyXtXyXyXyXyXyXg.IXcXjXhX*X*Xr e =XZXNXZXHXFXAXVXNXNXBXBXAXAXCXAX    ",
"                                      uX9.8.A m B ` 6XKXJXMX}.7XDXMX) m M M n N S ' 2XyXtXeXtXtXeXtXyXsX5X#XoXoX Xe e #XjXcXFXGXZXxXhXhXcXxXvXvXvXvXvX    ",
"                                    i.-.' A m B ` MX}.7XMX}.U Y 7XDXmXS M M M n N C ( 6.yXtXtXtXtXtXyXyXPXnXcXjXcXnXnXcX=X=XZXZXvXgX%X@X$XcXxXvXvXvXvX    ",
"                                uX*.-.' U Z Z U LXMXU U ' ( }.` Y 7XAX' c M n c n N N Y _ qXrXyXtXyXeXeXPXDXGXFXHXHXSXZXZXVXcXcXgX*X@XoXkXNXCXnXxXkXkX    ",
"                              u.&.w.qX) A m Z }.KX6X) }.` U MX6X( ( 5X}.c M x M x c N N Y _ #.o.p.rXyXeXsXZXKXHXHXHXKXSXGXFXZX=X#X@X&XNXSXAXBXxXkXhX      ",
"                            >.*.a.tX8.A B B Z 7XFX}.( zXMXMXLXFX:XY :X' n M x x x c c h h C / r T } =.k.uXPXSXKXHXHXHXJXJXHXHXZXxXnXDXKXDXVXCXkXhXkX      ",
"                          ;.*.g.eX9XU Z Z m B 7XSX}.) 6XHXFXFXDXMX}.jXC x x x c c x c c N k P |.B.m.r J o.dXZXGXHXJXJXJXJXJXJXJXKXKXKXAXAXBXvXkXfXhX      ",
"                        ;.-.rXeXeX` U B m B m ` VX( ) zXKXDXAXZXBXmX}.V n n n n c c z z c h k E H.L.L.V.r W zXSXHXJXJXJXJXJXJXJXHXKXDXZXBXxXxXfXfXgX      ",
"                      >.-.rXeXeXuX) B B m m m B :X7X_ zXAXmX7X` U S c c z d f d z f N N f f h k / P.L.L.L.n.@XZXKXJXJXJXJXJXJXKXGXGXAXBXxXxXhXfXfX        ",
"                    0.-.rXeXeXeX<XU B B m m M m V :XmX6X` A V c f a a t i i % i i i a u f h h h E C.L.L.L.P.vXSXFXHXJXJXJXHXKXGXAXZXBXxXxXhX&X&X*X        ",
"                  i.*.g.rXeXrXeX` B B m m m M M M n S n z s a i i a i i i & & & i & & i & a f p k |.P.L.L..XDXHXKXKXKXKXKXFXDXAXZXNXnXkXgXfX&X&X          ",
"                u.=.f.eXwXeXeXqX) Z m m m m M M B n f a i p i i i i i & $ o X X X $ % & & & i l g P H.E.L.bXHXJXJXKXGXDXAXZXZXBXvXxXcXgX&X&X$XfX          ",
"              qX>.w.eXeXwXeXeXq.A B m m m b m V d a i i i i i l j T W W o X X . . X ; = & & & i g g r Y.L.lXLXHXHXHXFXZXZXNXnXxXcXhX*X$X$X$X$X            ",
"              i.-.wXwXeXeXeXuX` A B m m m V c p i i i i l j W W W Q $.; . o ; W T * * E ; - % % g p / T.Y.!.vXFXKXKXHXKXZXnXcXjX&X$X$X$X$X#X-X            ",
"            u.*.h.eXwXwXwXeX&.) Z B m m V z i p & & $ = W Q Q Q $.~ 7.: o W 7.7.7.$.T Q Q T $ $ & g I S.Y.I.H.=XLXGXGXKXKXGXVXjXfX$X%X$XfX%.i.            ",
"          qX>.:.j.h.j.j.eX>.W U Z m m n z l p & X X X X ; Q $.7.7.7.4.q W 7.7.$._ 4.$.~ ~ ^ T o $ i g S.Y.L.I h +XmXVXSXSXDXDXSXBXhXfX&XkX-Xo.k.          ",
"          u. .k.j.f.f.eXd.G r U B m n c i p i X X o @ o @ q 7.7.7.7.4.$.7.$.+X+X+X^ 7.7.$.:X! $ * - I S.Y.L.h b d j +XjXnXBXBXNXNXNXvXkXxX8X .w.          ",
"        uX*.:.k.j.f.k.h.} m.C.A m m D p a i $ X + L Q W ; ; $.6.5.6.6.6.4.#XhXvXnX-X$.7.7.4.~ = - ; R [.].C.c v v d t j [.+XgXkXhXhXfX$X=Xu.e.-.d.        ",
"        a.o.f.p.p.w.k.*.8 N.P.Y m n f p a = ; o Q 7.7.5.7._ 7.8.q.4X1X<X$..X.X.XAXSX-X8.5.5.:XT * q ~ _ :XE M b v v d y t i R ! ! OX=XIXi.a.f.-.i.        ",
"      uX*.f.wXf.w.h.a.G m.L.V.A m D p a i ; T ; 4.4.4.+X:X:X4X2X9X0X3Xd.[.D.D.'..XHXAX4X<X8.;XE $ / ^ ^ Q D b v v v x d s u t t a R p.h.y.a.wXf.-.d.      ",
"      k.X.wXj.h.j.j.=.w L.L.P.Y n c p a - G Q ~ 6.4.+XnXkX.X+XqXiX9X0X0X[.Z. X0 XXvXAX6X<X<X8.Q $ : ^ ~ E c b b v v x z d s y y g j  .rXj.h.j.wX=.p.      ",
"      1.e.j.j.j.j.a.W m.L.L.L.Y n c f % ; Q _ 7.6.,XZXCX.X'.'.=XpXiX9X9X6X+X=Xw XXlXDX5X<Xq.6.7.= o q ~ ( x b v v v x x z s s y g 6 G a.wXj.j.wXy.w.      ",
"    uX..h.j.h.j.wX-.: B.N.N.N.I D c p $ ; 5.6.1X2XiXKXbX'.D.J.%XpXpXpXpXpXpXpX,X*XbXAX6X1X8.q W _ = = T D b v v v x x z d s y y - z.: o.wXj.j.j.h.=.d.    ",
"    a.=.h.h.h.h.k.#.6 B.I.I.I.F.D c i - ; 2X0X9XiXaXFXbXD.w -XdXsXsXsXaXpXpXiXiX6XzXVX3X<Xq @ + ! Q = R c b v v v x x z d s y a 8 c.7 } k.j.h.h.j.-.a.    ",
"    -.t.h.h.h.j.e.q B.I.Y.I.I.I.P D i j l 0X9X9X0XaXJXbXA.e dXsXsXsXsXaXpXpXiXiX3X3X3X7.; @ @ O : _ W k x b v v v x z z d y y g n.v.4 q w.j.h.h.h.y.1.    ",
"  rXX.f.g.g.h.g.-.w N.A.I.I.I.I.F.h f j L 5.9X9X0XaXJXvX'.*XsXsXsXsXaXaXpXiXiX3X3X4XT @ . @ @ O * Q ~ k x v v v x x z z s y y = b.c.c.7 o.h.h.h.h.g.=.k.  ",
"  g.X.g.g.g.g.s.#.6 N.I.I.I.I.I.B.C.( L j Q pX9X0XiXPXHXvXdXaXsXsXPXaXpXiXiX3X3X3X;Xq X . @ @ . = 5.Q l z v x v x x z d s y f 6 v.v.4 7 } a.g.g.g.h.=.s.  ",
"  d.<.g.g.g.g.t.W b.N.A.L.Y.L.I.S.6X0X4XR L 0XpXiXpXaXLXLXsXpXpXpXpXpXiXiX3X3X1X4X;X* . . . . * ~ 5.~ - s v v x x x z d s s g v.c.c.c.5 T e.h.g.g.g.<.a.  ",
"  e.r.f.f.f.g.y.q M.N.A.L.L.A.L.=X1Xq.0XL l 4.,X$.9X9X9X0X0X9X9X0X0X0X3X3X1X<X>X;X$.. . . @ ; $.5.5.~ l t x v x x z d s s u = v.v.v.c.c.q 1.g.g.g.g.2.p.  ",
"  <.t.f.f.f.f.w.r B.b.M.M.x.M.x.;X8.8.8.Q & $.$.+ + ; q q $.0X0X2X3X1X<X<X4X;X;X4.: . . . + ^ 6.6.6.7.l % z v x x z d s s a 6 z.4 1 4 c.w o.g.s.f.f.s.3.  ",
"h.<.s.s.f.f.s.*.w B.N.M.N.N.N.N.:Xq.q.q.Q j ,Xe + * * + @ : 7.2X<X<X<X8.6.5.$._ q . . . . q ;X;X>X6.~ l % d x x z z d s y f z.z.1 1 c.b.9 o.f.f.s.f.s.<.f.",
"g.,.s.s.s.s.s.*.9 A.M.M.M.N.N.N.J.q.2Xq.' j ,XW + : * : + + : $.5.5.5.7.$.~ Q * . . + * q 6.;X;X;X6.~ l % d x x z z s s y - x.z.z.z.c.M.9 *.s.s.s.s.s.3.s.",
"s.3.s.s.s.s.s.;.Z.B.M.M.M.M.M.M.m.4X3Xq.2XQ ,X$.+ + + + * : + + : q T T q * X . . @ ~ $.$.;X,X6.;X6.E & t s x x z d s y y 8 z.z.z.z.c.N.9 #.s.s.s.s.s.3.s.",
"s.2.a.s.t.r.s.;.Z.B.M.M.N.V.M.x.M.+X0X3Xq.9XpX0XQ + + + + + + @ @ @ . X X o O @ + ! ^ r ;X;X;X;X6.4.j % t y z z z d s y p 3 1 z.z.z.c.B.Z.#.s.t.t.s.e.3.s.",
"r.2.1.s.s.e.r.0.Z.B.n.S.fXlX.XS.v.V.,XiX9X9X9X0X2Xq._ Q q + @ @ * * + + + q W W +X+XG.W ;X;X;X;X:XQ & % t t d z d s s y g 1 1 z.c.x.c.N.Z.%.t.y.r.r.1.2.2.",
"2.2.1.2.,. .1.0.6 S.fXHXJXDXmXgXF.M.J.iX9X0X9X0X2X2X2X2X4XQ T W W W r T +X:X+X+XOXe o ~ 4X;X;X;X$.= $ t t y y d d s y u 8 c.1 c.v.c.c.v.m.%.r.&.,.1.,.r.1.",
"1.r.>.,.=.r.s.9.@XBXJXJXFXSXmX5X+XH.vXMXdX8.q.1X2X2X2X3X2X3X<X8.^ ! +X+XOX[.{.q $ - = 4X;X6.;X4.q O % t t u u s d s y f 6 c.v.v.b.M.v.x.6 0.t.2.=.=.=.r.<.",
",.t.t.r.2.r.r.qXJXJXKXKXDXVXmXjX#X=XJXZX5X! ! ^ ,X2X1X2X2X2X2X2X4XW q q ; - - - g I 7.4X4X6.6.! 7 o $ % t y u y d s s h 4 c.v.b.b.b.v.x.F.;.t.r.2.r.r.t.,.",
"X.s.2.r.r.r.qXLXJXKXKXFXFXVXnXjX=XoXSXSXjXe x.n.K.<X<X<X1X2X2X2X0Xq.W j I P P / E :X2X;X4X6.^ 6 2 7 % t t y y s s s s = 4 b.v.b.b.v.v.x.w :.r.r.2.r.2.s.=.",
"  s.2.2.2.r.PXJXJXJXJXJXHXDXmX=X&X[.jXmX=XK.z.c.b.K.;X<X<X<X1X2X2X3X2X5.5.>X;X6.4X1X;X6.:X}.w c.n.6 % u u y s s s y d 8 c.v.b.b.b.v.c.z.e p.3.2.2.2.2.s.  ",
"  t.2.2.3.qXJXJXJXJXJXKXSXVXnXhX%Xe G.#XG.w c.c.b.b.F.[.q.q.q.<X1X<X1X1X<X1X<X<X>X5.6.:X$.r c.n.V.m.- u u s s s s s d 3 c.v.v.v.v.v.4 1 e a.3.2.2.2.2.r.  ",
"  1.r.3.2.aXJXJXJXHXFXDXDXZXjXhX=Xe e G.e w c.4 c.c.c.4 w |._ <Xq.<Xq.<X<X<X8.6.6.6.5._ q 7 B.A.U.E.8 x z d d d d d g c.2 c.c.c.c.4 4 4 %.s.,.3.3.3.r.1.  ",
"  X.t.3.1.aXJXJXJXJXHXHXKXDXnX=X#XG.oXoX[.F.c.< 1 1 z.3 1 n.m.K.^ 6.>X<X<X8.q.8.6.7.^ j & 7 R.E.E.E.C.c v x x c d d 8 3 2 1 1 1 1 2 4 9 %.p.3.3.3.<.t.=.  ",
"  [ f.,.3.iXJXJXJXJXJXKXKXDXNXgX%X[.oX%XoXF.z.2 1 1 1 1 2 3 C.H.S.6 R ( _ 5.5.~ E j i u s I E.~.E.~.U.I v x x z z z 6 c.< 1 1 1 1 2 2 9 p.,.3.3.<.,.s. .  ",
"    s.,.,.8XJXJXJXJXHXGXAXnXxXhX%XoX#X@XoXZ.4 < 2 2 3 z.m.( {./.T.5 p z f f f f f z x b b P E.E.].].^.8 x v x z z f 5 4 2 2 2 2 2 2 < $.d.O.,.,.,.<.a.    ",
"    :.y.,.9.KXJXHXKXSXnXhX%XgXfX@X[.@X@X[.9 2 < 2 2 2 6 ) Y ]././.m.c v b b v b b b b P C.S.'.>.@.@.o.G.h v v z c g 4 4 < 2 2 2 2 < 6 %.1.,.,.,.,.r.-.    ",
"     .f.O.1.MXGXDXAXCXkX&X@X$X[.oX@X@X%X[. Xn.< < 2 8 ( A Y ].^._.6 c b b b b m P |.T./.!.'. X@.@.@.+.0.H.I x c c k 5 4 < 2 < < 2 < r qX=.,.,.O.O.s. .    ",
"      a.,.,.8XAXZXCXNXvXvXxXhX&X$X$X%X$X[.[.K.> 3 6 k A Z / /.`.(.8 c C P |.].~./.~.~.~.~.R. X+.l.+.@.y.K.U.I x h C 7 2 > < < < > 5 %.p.X.O.O.O.,.p.#.    ",
"      =.r.=.0.AXBXNXNXNXNXNXxXxXhX&X$X[.[.$X[.3 6 g f V m |.~.Q.`.T.!.`.^.(.^.^.(.(.(.).~.~.].w.+.l.y.@.H.P.~.C.h C 8 < < < 5 5 < w d.*.O.=.=.X.e.=.      ",
"      } s.X.0.mXNXvXvXxXvXxXvXxXkXfX$X@X@X%XG.7 i t y M V {.*Xw.J.T.!.).(.(.(.(.(.(.(.(.).~.~.].%.@.o.e T.U.!.!.C.C 8 < > 5 < < 5 %.d...,.X.X.X.s.#.      ",
"        -.1.X.0.5XxXxXxXxXxXxXkXgXfX%X[.$X%Xr & % t s x C =.+.+.;.S.`.).(.(.(.(.(._.(.(.(.~.U.U.E.U.E.R.A.Y.U.!./.K.P < > > 5 > r uX..<.=.O...2.:.        ",
"        } s.-.O.0.=XkXhXhXhXhXgXfX$X@X$X&XoX- % % % s x ] @.+.+.0.S.~.(.(.(._._._._.(.(.(.^.^.~.L.Y.B.Y.U.Q.W.R.T./.].5 > > > 0 8X:.| [ ..X.-.s.*.        ",
"          -.<.| ..&.=XgX=XfX&X$X%X%X$XhX$Xr % % % t z x ] +.l.l.OXT.~.(._._._._._._._.(.(.(.(.(.^.^.Q./.~.W.W.R.R.!.].T.> > > %.qX| ..| ..| -.>.          ",
"          } t...| | &.=X&X&X$X&X&XxXvXfXe % % % % u z d Q @.@.o.].A./.(._._._._._._._.(.(.(.^.^.^.^.^.~.~.W.R.R.T.U.T.].5 , r rX| ....[ [ ..p.*.          ",
"            *.e.| ....8XVXcXxXNXAXvX$X! i t t % t t s h H.%.*.J.Y.'.(.(._._._._._._.(.(.(.(.^.^.^.^.^.~.Q.W.R.R.R.T.T.].4 w qX*.........| 1.:.            ",
"            } w.-.| ..*.dXZXVXmX=X[.R t t t t % t t u I R.E.R.U.T.).(.(._._._._._.(.(.(.(.(.^.).^.^.^.~.E.Q.W.R.U.T.T.T.K.u.:.| | | | | ,.p.#.            ",
"               .e.X.| | } 7.+X%.$.l u t u t t t t t % 8 ^.W.!.R.).(.(._.(._.(._.(._.(.(.(.^.^.^.^.^.^.~.E.R.R.R.R.T.B.J.8X:.K | ..| | X.p.;.              ",
"                ;.e...|  .| | { ..Q p u u t t % t t % C.).).).).(.(.(.(._._.(._.(.).(.(.(.(.^.).~.~.E.Q.!.R.R.U.Y.B.J.8X9.[ | | | |  .p.:.                ",
"                  >.1. .[ | | | | o.Q k u u t t t t & C.).).).).(.(.(.(.(._._.(.(.).).).~.^.~.~.~.E.~.E.W.R.R.U.S.@Xu.>.[ | | | | | :.9.                  ",
"                  } w.-.| | [ | | K &.&.' l t t % & * S.).).).(.(.(.(.).).).).).).).).).~.~.~.~.~.`.!.R.R.U.L.H.-Xu.*.{ | [ [ { [ -.p.}                   ",
"                    } w.-.[ [ [ [ | {  .>.9.Q + , , > T.`.).).^.~.).).).).).).).).).).).~.Q.E.!.E.!.R.R.U.S. X8X9.} [ | [ | [ { -.i.#.                    ",
"                      } p.-.[ [ { { [ K [ &.9.IXr , > S.`.)./.^.).).).(.).~.~.Q.E.Q.Q.Q.Q.W.Q.E.R.R.U.Y.J.IXu.*.{ { [ [ [ [ { -.a.}                       ",
"                        } w.w.[ { { {  ... .} *.9.IXe Z.T.Q.~.~.~.~.Q.Q.~./.~.~.Q.Q.Q.Q.Q.Q.W.R.Y.S. XIXu.;.}  . . .[ [ [ { e.p.}                         ",
"                          } >.e.{ { { | [ [ F { [ *.i.8XIXJ.A.R.E.E.E.`.).~.~.Q.!.!.E.E.E.Y.A.K.-X8Xu.*. .{ F [ [ | { { [ a.9.J                           ",
"                              *.f. .{  .{ { { | K K [ } ;.u.uXIXOX XD.S.A.Y.I.Y.A.S.D.J. XIXuXu.>.} } { H | { H {  .{  .k.*.                              ",
"                                } a.e.[ F { { { K { H K { { } #.%.i.u.uXuXsXuXuXuXuXqXi.w.*.{ { { F { { { { { H F [ w.a.}                                 ",
"                                  G *.f.o.F J { K K K K F { F { { { { J { K } J J { J J { { { F { { F J H K H F o.g.*.G                                   ",
"                                      J i.s. .H F H H H J { H J F { F { F { o.{ H H K H H H { H H H H H H F  .a.p.J                                       ",
"                                          } p.f.o.{ H { F F { F { F J F | ..H |  .H H H { F F J H H H F o.a.a.}                                           ",
"                                              { w.k.w.[ { H F H G F F F { { H { K H H H F H F H { } w.f.w.}                                               ",
"                                                  G *.a.a.e.o.} { { { H F { F [ H H H H { [ o.w.a.a.*.G                                                   ",
"                                                        G } 9.a.a.a.y.w.o.-.o.w.X.w.w.a.f.a.w.#.G                                                         ",
"                                                                L J } } *.*.*.%.*.#.} F L                                                                 "
};
